<?xml version="1.0" encoding="UTF-8" standalone="no"?>
<!-- Created with Inkscape (http://www.inkscape.org/) -->

<svg
   xmlns:osb="http://www.openswatchbook.org/uri/2009/osb"
   xmlns:dc="http://purl.org/dc/elements/1.1/"
   xmlns:cc="http://creativecommons.org/ns#"
   xmlns:rdf="http://www.w3.org/1999/02/22-rdf-syntax-ns#"
   xmlns:svg="http://www.w3.org/2000/svg"
   xmlns="http://www.w3.org/2000/svg"
   xmlns:xlink="http://www.w3.org/1999/xlink"
   xmlns:sodipodi="http://sodipodi.sourceforge.net/DTD/sodipodi-0.dtd"
   xmlns:inkscape="http://www.inkscape.org/namespaces/inkscape"
   width="296.29962mm"
   height="173.50305mm"
   viewBox="0 0 296.29962 173.50305"
   version="1.1"
   id="svg8"
   inkscape:version="0.92.4 (5da689c313, 2019-01-14)"
   sodipodi:docname="grimsund.svg">
  <defs
     id="defs2">
    <linearGradient
       id="linearGradient876"
       osb:paint="solid">
      <stop
         style="stop-color:#a1ca9d;stop-opacity:1;"
         offset="0"
         id="stop874" />
    </linearGradient>
    <linearGradient
       id="linearGradient866"
       osb:paint="solid">
      <stop
         style="stop-color:#000000;stop-opacity:1;"
         offset="0"
         id="stop864" />
    </linearGradient>
    <linearGradient
       id="linearGradient1102"
       osb:paint="solid">
      <stop
         style="stop-color:#c1c1c1;stop-opacity:1;"
         offset="0"
         id="stop1100" />
    </linearGradient>
    <linearGradient
       id="linearGradient1094"
       osb:paint="solid">
      <stop
         style="stop-color:#c1c1c1;stop-opacity:1;"
         offset="0"
         id="stop1092" />
    </linearGradient>
    <linearGradient
       id="linearGradient1088"
       osb:paint="solid">
      <stop
         style="stop-color:#c1c1c1;stop-opacity:1;"
         offset="0"
         id="stop1086" />
    </linearGradient>
    <linearGradient
       id="linearGradient884"
       osb:paint="solid">
      <stop
         style="stop-color:#c1c1c1;stop-opacity:1;"
         offset="0"
         id="stop882" />
    </linearGradient>
    <linearGradient
       id="linearGradient854"
       osb:paint="solid">
      <stop
         style="stop-color:#bc7e63;stop-opacity:1;"
         offset="0"
         id="stop852" />
    </linearGradient>
    <linearGradient
       id="linearGradient848"
       osb:paint="solid">
      <stop
         style="stop-color:#a1ca9d;stop-opacity:1;"
         offset="0"
         id="stop846" />
    </linearGradient>
    <linearGradient
       inkscape:collect="always"
       xlink:href="#linearGradient854"
       id="linearGradient850"
       x1="91.338638"
       y1="161.52191"
       x2="128.4875"
       y2="161.52191"
       gradientUnits="userSpaceOnUse"
       gradientTransform="matrix(3.7795276,0,0,3.7795276,56.899616,-233.6497)" />
    <linearGradient
       inkscape:collect="always"
       xlink:href="#linearGradient854"
       id="linearGradient856"
       x1="55.965611"
       y1="138.82953"
       x2="126.67614"
       y2="138.82953"
       gradientUnits="userSpaceOnUse"
       gradientTransform="translate(15.05469,-61.819816)" />
    <linearGradient
       gradientTransform="translate(15.054685,-61.819816)"
       inkscape:collect="always"
       xlink:href="#linearGradient848"
       id="linearGradient850-0"
       x1="91.338638"
       y1="161.52191"
       x2="128.4875"
       y2="161.52191"
       gradientUnits="userSpaceOnUse" />
    <linearGradient
       inkscape:collect="always"
       xlink:href="#linearGradient884"
       id="linearGradient886"
       x1="96.312531"
       y1="151.09303"
       x2="109.17155"
       y2="151.09303"
       gradientUnits="userSpaceOnUse"
       gradientTransform="translate(15.05469,-61.819816)" />
    <linearGradient
       inkscape:collect="always"
       xlink:href="#linearGradient854"
       id="linearGradient1090"
       x1="53.809536"
       y1="68.870132"
       x2="81.560654"
       y2="68.870132"
       gradientUnits="userSpaceOnUse"
       gradientTransform="scale(3.7795276)" />
    <linearGradient
       inkscape:collect="always"
       xlink:href="#linearGradient884"
       id="linearGradient878"
       x1="129.02985"
       y1="112.19152"
       x2="142.4687"
       y2="112.19152"
       gradientUnits="userSpaceOnUse" />
  </defs>
  <sodipodi:namedview
     id="base"
     pagecolor="#ffffff"
     bordercolor="#666666"
     borderopacity="1.0"
     inkscape:pageopacity="0.0"
     inkscape:pageshadow="2"
     inkscape:zoom="0.7"
     inkscape:cx="712.39754"
     inkscape:cy="468.53651"
     inkscape:document-units="mm"
     inkscape:current-layer="svg8"
     showgrid="false"
     inkscape:window-width="1920"
     inkscape:window-height="1017"
     inkscape:window-x="1912"
     inkscape:window-y="1072"
     inkscape:window-maximized="1"
     inkscape:snap-page="true"
     inkscape:snap-global="false" />
  <metadata
     id="metadata5">
    <rdf:RDF>
      <cc:Work
         rdf:about="">
        <dc:format>image/svg+xml</dc:format>
        <dc:type
           rdf:resource="http://purl.org/dc/dcmitype/StillImage" />
        <dc:title></dc:title>
      </cc:Work>
    </rdf:RDF>
  </metadata>
  <rect
     style="fill:#718bfa;fill-opacity:1;stroke:#000000;stroke-width:1;stroke-miterlimit:4;stroke-dasharray:none;stroke-opacity:1"
     id="rect844"
     width="295.29456"
     height="172.50192"
     x="0.50193268"
     y="0.5011304"
     sodipodi:insensitive="true" />
  <g
     inkscape:label="Layer 1"
     inkscape:groupmode="layer"
     id="layer1"
     transform="translate(0.50193267,-123.99695)" />
  <path
     style="fill:url(#linearGradient856);fill-opacity:1;stroke:#000000;stroke-width:1;stroke-linecap:butt;stroke-linejoin:miter;stroke-miterlimit:4;stroke-dasharray:none;stroke-opacity:1"
     d="m 96.079977,98.900769 -7.886895,7.011551 -8.220983,-6.614581 -0.329337,-4.5796 -5.151316,0.0439 -0.417118,-4.91844 -2.380531,-2.61341 1.168322,-1.3067 2.101796,2.31846 1.039434,-1.03943 -0.188986,-3.87426 2.740326,-3.96875 1.889882,0.75596 7.465028,-16.72545 2.55134,-2.173355 2.740327,1.41741 1.13393,-1.6064 -1.795389,-5.85863 1.417413,-2.55134 6.80356,-2.64584 1.7009,1.32292 1.87842,4.65395 3.31875,-1.81913 -0.66146,-3.1183 7.18155,-3.02381 5.19717,1.79539 1.5119,2.26785 5.48066,1.7009 -0.79608,2.84055 2.20301,0.70634 0.9058,-2.9552 4.71896,1.19698 4.8251,-2.64682 2.72035,2.10278 -5.82113,5.12757 -16.09412,-1.98732 -1.07186,2.60768 3.76846,1.98142 -2.80338,4.756305 -5.12282,-0.31214 -2.07887,1.41741 -0.66146,2.17336 -3.49627,1.41742 c -2.53206,1.74053 -4.03902,4.00621 -5.66965,6.52008 l -0.66145,2.36236 -6.090695,6.55922 1.839278,2.08952 3.967927,-2.88461 1.64079,2.13423 c -0.0318,4.06542 -0.4381,7.10388 0,10.97277 l -2.40148,2.057911 z"
     id="path828"
     inkscape:connector-curvature="0"
     sodipodi:nodetypes="cccccccccccccccccccccccccccccccccccccccccccccccccccc" />
  <path
     style="fill:url(#linearGradient850-0);fill-opacity:1;stroke:#000000;stroke-width:1;stroke-linecap:butt;stroke-linejoin:miter;stroke-miterlimit:4;stroke-dasharray:none;stroke-opacity:1"
     d="m 110.14591,95.607152 0.052,-9.200553 4.00952,-3.51922 1.04869,-3.19379 5.63189,-0.23959 9.67475,8.580784 7.88305,10.632579 4.49475,3.228968 -1.21661,4.77195 -13.35945,14.93399 z"
     id="path830-2"
     inkscape:connector-curvature="0"
     sodipodi:nodetypes="ccccccccccc" />
  <path
     style="fill:url(#linearGradient850);fill-opacity:1;stroke:#000000;stroke-width:3.77952766;stroke-linecap:butt;stroke-linejoin:miter;stroke-miterlimit:4;stroke-dasharray:none;stroke-opacity:1"
     d="m 461.64062,293.87305 -31.56835,2.01953 -4.29297,14.39453 -20.14258,18.5625 5.47656,33.33789 28.61719,37.45703 1.95898,19.65625 43.4668,40.29883 10.51172,-11.01563 -36.73242,-33.51171 -1.77149,-15.41211 -11.78125,-25.76563 -22.44726,-15.73047 -5.57032,-27.32031 16.74805,-12.72852 3.78711,-9.34375 19.19373,-1.76679 22.30548,22.40101 0.35711,15.17862 13.96508,18.88037 8.46955,-5.99308 17.71631,22.27198 8.88866,5.11049 3.49359,-5.61915 -9.03013,-6.31891 -31.98075,-46.27456 6.14278,-14.97737 z"
     transform="scale(0.26458333)"
     id="path830"
     inkscape:connector-curvature="0"
     sodipodi:nodetypes="cccccccccccccccccccccccccccc" />
  <path
     style="fill:#a1ca9d;fill-opacity:1;stroke:#000000;stroke-width:1;stroke-linecap:butt;stroke-linejoin:miter;stroke-miterlimit:4;stroke-dasharray:none;stroke-opacity:1"
     d="m 0.78608893,74.351309 12.00074407,12.6622 14.930059,-1.88988 14.741072,-12.7567 4.252232,3.87426 6.709077,-0.56696 1.795386,5.57514 10.394346,-4.53571 12.000743,-9.4494 1.228424,-4.535715 2.031623,-2.03162 -3.827012,-4.20499 4.063246,-8.50446 5.008184,-2.17336 4.724702,1.79538 5.338914,-7.7485 -1.086682,-5.008192 1.700893,-1.228423 4.6302,1.322917 3.2128,9.638388 4.53572,0.18899 3.40178,-5.19717 0.85045,-5.197173 2.45684,-0.472469 1.32291,1.322916 2.74033,-1.41741 0.18899,-7.181548 1.70089,-1.322917 7.74851,4.252233 0.37798,2.551337 4.34673,2.740329 0.47247,2.83482 2.17336,2.173362 2.74033,-2.83482 1.13393,-0.377976 2.83482,-7.748511 -1.32292,-2.55134 -2.36235,-0.09449 -5.76414,-8.409971 -2.26786,1.13393 -1.13392,-1.417413 3.49628,-9.3549098 8.37452,2.7476178 5.57729,-1.0760318 1.27804,-9.04073099 -149.03408808,-0.335208 z"
     id="path832"
     inkscape:connector-curvature="0"
     sodipodi:nodetypes="ccccccccccccccccccccccccccccccccccccccccccccccc" />
  <path
     style="fill:#a1ca9d;fill-opacity:1;stroke:#000000;stroke-width:1;stroke-linecap:butt;stroke-linejoin:miter;stroke-miterlimit:4;stroke-dasharray:none;stroke-opacity:1"
     d="m 129.85759,122.89733 13.10652,-15.10154 5.09057,2.03498 11.75986,-3.77518 12.05301,-10.348631 11.1503,-0.7087 4.29948,-2.17336 9.07142,-0.0473 2.92932,1.88988 2.69308,0.0945 4.77195,-3.30729 5.66964,0.37798 5.00819,2.83482 7.65401,11.150301 -2.45684,6.89806 1.88988,3.49628 2.07887,-0.37797 3.87426,-4.34673 6.2366,-0.66146 10.77232,4.8192 9.82739,9.07142 0.85044,4.53572 8.97694,-1.70089 22.11161,14.45759 2.36233,2.50409 -1.79538,4.8192 -3.68525,1.60639 -0.0945,2.83482 1.88989,0.99219 6.33109,0.23624 1.41742,2.69308 0.0945,15.30803 H 188.7799 l -3.87541,-1.76715 -5.14493,-8.81989 -11.02487,-11.02487 0.26727,-3.67496 1.80407,-0.86862 -0.33409,-1.73725 -2.6727,-0.46773 -2.67269,-2.27179 -3.47451,0.46773 -4.81085,-4.27632 -7.34991,1.26953 -7.88445,-6.08038 z"
     id="path834"
     inkscape:connector-curvature="0"
     sodipodi:nodetypes="cccccccccccccccccccccccccccccccccccccccccccccc" />
  <path
     style="fill:#bc7e63;fill-opacity:1;stroke:#000000;stroke-width:1;stroke-linecap:butt;stroke-linejoin:miter;stroke-miterlimit:4;stroke-dasharray:none;stroke-opacity:1"
     d="m 124.00042,66.366059 1.30294,-2.53906 4.00904,1.30294 -1.09773,2.97575 z"
     id="path836"
     inkscape:connector-curvature="0"
     sodipodi:nodetypes="ccccc" />
  <path
     style="fill:#bc7e63;fill-opacity:1;stroke:#000000;stroke-width:1;stroke-linecap:butt;stroke-linejoin:miter;stroke-miterlimit:4;stroke-dasharray:none;stroke-opacity:1"
     d="m 129.39109,72.550719 2.92138,1.19809 0.65613,-2.43617 -1.28279,-1.73321 0.28378,-3.886 4.47274,0.45098 0.27779,5.63042 -2.61488,5.20831 -5.49442,-2.6324 z"
     id="path838"
     inkscape:connector-curvature="0"
     sodipodi:nodetypes="cccccccccc" />
  <path
     style="fill:url(#linearGradient886);fill-opacity:1;stroke:#000000;stroke-width:1;stroke-miterlimit:4;stroke-dasharray:none;stroke-opacity:1"
     d="m 116.84624,92.809912 -3.97563,-2.327453 3.28754,-4.641671 3.60376,-0.549975 1.93331,2.089311 1.23253,2.725808 z"
     id="path880"
     inkscape:connector-curvature="0"
     sodipodi:nodetypes="ccccccc" />
  <path
     style="fill:url(#linearGradient1090);fill-opacity:1;stroke:#000000;stroke-width:3.77952766;stroke-miterlimit:4;stroke-dasharray:none;stroke-opacity:1"
     d="m 507.25586,67.441406 -8.57031,4.285156 -4.28596,-5.356572 13.21429,-35.35714 -26.93645,-9.29457 -13.88419,18.687822 -87.02341,-7.103725 -6.3767,50.491988 -30.00083,4.643412 1.42997,54.464563 -50.89454,28.92774 -15.125,40.97851 -18.18359,14.64649 15.6582,19.44531 -40.66015,32.07227 -30.76563,15.76172 3.83399,12.3496 39.28515,-17.14257 45.35742,-35.71485 4.64258,-17.14258 7.67969,-7.67773 -14.46484,-15.89258 15.35742,-32.14453 18.92773,-8.21289 17.85742,6.78516 20.17774,-29.28516 -4.10547,-18.92969 6.42773,-4.64258 17.5,5 12.14258,36.42969 17.14258,0.71289 12.85742,-19.64258 3.21485,-19.64257 9.28515,-1.78516 5,5 10.35742,-5.35742 0.71485,-27.14258 6.42773,-5 29.28516,16.07031 1.42969,9.64258 16.42773,10.35742 1.78711,10.71485 8.21289,8.21484 10.35742,-10.71484 4.28516,-1.42774 10.71484,-29.28711 -5,-9.642576 -8.92773,-0.357422 z"
     transform="scale(0.26458333)"
     id="path1084"
     inkscape:connector-curvature="0"
     sodipodi:nodetypes="ccccccccccccccccccccccccccccccccccccccccccccccccc" />
  <path
     style="fill:none;fill-opacity:1;stroke:#000000;stroke-width:1;stroke-miterlimit:4;stroke-dasharray:none;stroke-opacity:1"
     d="m 124.31263,106.13582 -0.64767,1.96531 2.90467,0.82851 0.62804,-2.25432"
     id="path849"
     inkscape:connector-curvature="0" />
  <path
     style="fill:none;fill-opacity:1;stroke:#000000;stroke-width:1;stroke-miterlimit:4;stroke-dasharray:none;stroke-opacity:1"
     d="m 126.92289,107.77357 2.43364,-0.67436 -0.74579,-2.73602"
     id="path851"
     inkscape:connector-curvature="0" />
  <path
     style="fill:none;fill-opacity:1;stroke:#000000;stroke-width:1;stroke-miterlimit:4;stroke-dasharray:3, 1;stroke-dashoffset:0;stroke-opacity:1"
     d="m 121.56659,90.773511 c 3.04419,4.801766 9.41761,15.479909 13.3998,13.503969 2.57901,-1.27969 -1.16157,-5.468825 -3.61967,-8.87376"
     id="path856"
     inkscape:connector-curvature="0"
     sodipodi:nodetypes="csc" />
  <path
     style="fill:none;fill-opacity:1;stroke:#000000;stroke-width:1;stroke-miterlimit:4;stroke-dasharray:2.99999996, 0.99999999;stroke-dashoffset:0;stroke-opacity:1"
     d="m 128.32292,115.71994 c 4.08191,-4.97359 8.50686,-8.60359 10.83182,-14.36644"
     id="path858"
     inkscape:connector-curvature="0"
     sodipodi:nodetypes="cc" />
  <path
     style="fill:none;fill-opacity:1;stroke:#000000;stroke-width:1;stroke-miterlimit:4;stroke-dasharray:2.99999996, 0.99999999;stroke-dashoffset:0;stroke-opacity:1"
     d="m 129.69254,120.04914 c 11.54351,10.42639 18.96693,18.01673 27.82944,16.33685 7.8443,-1.48688 23.72443,1.07116 39.58929,37.11706"
     id="path860"
     inkscape:connector-curvature="0"
     sodipodi:nodetypes="csc" />
  <path
     style="fill:none;fill-opacity:1;stroke:#97b4e6;stroke-width:1;stroke-miterlimit:4;stroke-dasharray:2.99999996, 0.99999999;stroke-dashoffset:0;stroke-opacity:1"
     d="M 636.63602,-91.093778 C 464.10033,-25.817729 207.68158,34.42572 100.54166,47.873215 85.884691,49.712861 95.218595,56.055478 66.977761,82.190527 30.43546,116.00804 -48.002975,163.29769 -48.002975,163.29769"
     id="path862"
     inkscape:connector-curvature="0"
     sodipodi:nodetypes="cssc" />
  <path
     style="fill:none;fill-opacity:1;stroke:#97b4e6;stroke-width:1;stroke-miterlimit:4;stroke-dasharray:2.00000003, 1.00000001;stroke-dashoffset:0;stroke-opacity:1"
     d="M -50.51394,183.39202 C 33.875952,153.04999 109.25135,135.41394 105.25687,92.27405 103.65541,74.978387 114.95128,70.630244 134.48029,80.933614 194.62806,112.66716 475.914,-0.13128245 632.35416,-79.363019"
     id="path870"
     inkscape:connector-curvature="0"
     sodipodi:nodetypes="cssc" />
  <path
     style="fill:url(#linearGradient878);fill-opacity:1;stroke:#000000;stroke-width:1;stroke-miterlimit:4;stroke-dasharray:none;stroke-dashoffset:0;stroke-opacity:1"
     d="m 126.5999,120.14078 13.47606,-14.98559 1.91526,1.5465 -13.65207,15.12657 z"
     id="path872"
     inkscape:connector-curvature="0"
     sodipodi:nodetypes="ccccc" />
</svg>
